<svg xmlns="http://www.w3.org/2000/svg" viewBox="0 0 85.9 23.87"><defs><style>.cls-1{fill:#fff;}</style></defs><title>5Asset 5</title><g id="Layer_2" data-name="Layer 2"><g id="Layer_3" data-name="Layer 3"><path class="cls-1" d="M9.14.63C6.87,2,6.9,1.57,4.53.34S-.22,1.46,0,3.44c.34,2.9,2.68,6.63,7,6.63s7-2.78,7-6S11.42-.7,9.14.63ZM7.55,8.76c-3.06,0-5-2.3-6-3.85S1.48,2.75,2.23,2s1.62-.75,2.83,0,2.57,1.53,4.5.13,3.29.91,3.29,1.72A5,5,0,0,1,7.55,8.76Z"/><path class="cls-1" d="M12.44,14.72c0-.36-1.33-.71-1.33-.94s.6-.72.81-.72.72-.15.34-.62-.4-.58-.43-.89.17-1.1-1.64-1.1-2.33,0-2.33,0H4.56s-1.34.1-1.77.95a1.47,1.47,0,0,0,.14,1.86c.41.41-.66.81-.66,1s1.26,1,1.26,1.24-.91.65-.91,1,.82.27.82.52-.83.76-.83,1.09,1.31,1.14,2,1.47a11.39,11.39,0,0,0,2.69,1,9.76,9.76,0,0,0,2.42-.75c.4-.19.63-.61,1.21-1s1.18-.52,1.09-.75-.71-.7-.71-.88,1-.71,1-.95-1-.53-1-.72S12.44,15.08,12.44,14.72Zm-3.25.79c0,.25,1.53.58,1.53,1s-1.48.43-1.48.78,1.27.6,1.27.82S9.41,19,9,19.22a4.31,4.31,0,0,1-1.64.17,6,6,0,0,1-1.9-.34,2.68,2.68,0,0,1-1.52-1.24,10.08,10.08,0,0,1,2.49-.16c.25,0,.47-.36.47-.59s-2.8-.25-2.78-.62.82-.81,1.19-.79,2-.18,2-.44-1.7-.43-1.91-.46-.87,0-1.11,0-.68-.32-.63-.55.34-.38.59-.38,1,.13,1.27.16,1.77.09,2,.09-.36-.77-.53-.94a14.92,14.92,0,0,0-2.49-.24c-.28,0-.54-.25-.54-.42s.27-.45.71-.45h5.42c.47,0,1.19-.06,1.19.36s-2.09,1.23-2.09,1.51,1.83.39,1.83.74S9.19,15.25,9.19,15.51Z"/><path class="cls-1" d="M27.59.66C25.32,2,25.35,1.6,23,.37s-4.75,1.12-4.51,3.1c.34,2.9,2.68,6.63,7,6.63s7-2.78,7-6S29.87-.67,27.59.66ZM26,8.79c-3,0-5-2.3-5.95-3.85s-.11-2.15.64-2.9,1.61-.76,2.83,0,2.57,1.53,4.5.13,3.28.91,3.28,1.72A5,5,0,0,1,26,8.79Z"/><path class="cls-1" d="M62.59,19.61c2.28-1.32,2.25-.94,4.61.29s4.76-1.12,4.52-3.1c-.35-2.9-2.68-6.63-7-6.63s-7,2.78-7,6S60.32,20.94,62.59,19.61Zm1.6-8.13c3.06,0,5,2.3,6,3.85s.1,2.15-.65,2.9-1.61.76-2.83,0-2.57-1.53-4.5-.13-3.28-.91-3.28-1.72A5,5,0,0,1,64.19,11.48Z"/><path class="cls-1" d="M30.89,14.75c0-.36-1.33-.71-1.33-.94s.6-.72.81-.72.72-.15.34-.62-.4-.58-.43-.89.17-1.1-1.64-1.1-2.33,0-2.33,0H23s-1.34.1-1.77,1a1.47,1.47,0,0,0,.14,1.86c.41.41-.66.81-.66,1.05s1.26,1,1.26,1.24-.91.65-.91,1,.82.27.82.53-.83.75-.83,1.08,1.31,1.14,2,1.47a11.24,11.24,0,0,0,2.69,1,9.76,9.76,0,0,0,2.42-.75c.4-.19.63-.6,1.21-1s1.18-.51,1.09-.75-.71-.7-.71-.87,1-.72,1-1-1-.53-1-.72S30.89,15.11,30.89,14.75Zm-3.26.79c0,.25,1.54.58,1.54,1s-1.48.43-1.48.78,1.27.6,1.27.83-1.1.89-1.52,1.12a4.12,4.12,0,0,1-1.64.17,6,6,0,0,1-1.9-.34,2.68,2.68,0,0,1-1.52-1.24,10.08,10.08,0,0,1,2.49-.16c.25,0,.47-.36.47-.59s-2.8-.25-2.78-.62.82-.81,1.19-.79,2-.18,2-.44-1.7-.43-1.91-.46-.87,0-1.11,0-.68-.32-.63-.55.34-.38.59-.38,1,.13,1.27.16,1.77.09,2,.09-.36-.76-.53-.94A14.92,14.92,0,0,0,23,12.92c-.28,0-.54-.25-.54-.42s.27-.45.71-.45h5.41c.48,0,1.2-.06,1.2.36s-2.1,1.23-2.1,1.52,1.84.38,1.84.73S27.63,15.28,27.63,15.54Z"/><path class="cls-1" d="M12.73,19.22a.63.63,0,0,1,.12-.37L17,13.46c.43-.53.82-1,1.25-1.48v0h-4.5a.6.6,0,0,1-.6-.61v-.15a.6.6,0,0,1,.6-.61h6a.61.61,0,0,1,.61.61v.26a.64.64,0,0,1-.13.37l-4.08,5.31c-.41.53-.78,1-1.21,1.48v0h4.89a.61.61,0,0,1,.61.61v.15a.61.61,0,0,1-.61.61H13.33a.6.6,0,0,1-.6-.61Z"/><path class="cls-1" d="M83.45,9.13v.73a.65.65,0,0,0,.65.65h1.15a.65.65,0,0,1,.65.65h0a.65.65,0,0,1-.65.66H84.1a.65.65,0,0,0-.65.65v4.44c0,1.16.33,1.83,1.29,1.83h.35a.64.64,0,0,1,.68.61v.05a.66.66,0,0,1-.53.68,4.61,4.61,0,0,1-1,.09,2.42,2.42,0,0,1-1.85-.72A3.69,3.69,0,0,1,81.77,17V12.47a.65.65,0,0,0-.65-.65H81a.65.65,0,0,1-.65-.66h0a.65.65,0,0,1,.65-.65h.16a.65.65,0,0,0,.65-.65V9.24a.64.64,0,0,1,.47-.62l.37-.11A.65.65,0,0,1,83.45,9.13Z"/><path class="cls-1" d="M72.19,13.13c0-.66,0-1.23,0-1.76a.76.76,0,0,1,.76-.8h0a.77.77,0,0,1,.76.72l0,.84h0a3.51,3.51,0,0,1,3.12-1.75c1.31,0,3.33.78,3.33,4v4.86a.76.76,0,0,1-.76.76h-.19a.76.76,0,0,1-.76-.76V14.57c0-1.52-.57-2.79-2.19-2.79A2.48,2.48,0,0,0,74,13.54a2.66,2.66,0,0,0-.11.8v4.91a.76.76,0,0,1-.76.76H73a.76.76,0,0,1-.76-.76Z"/><path class="cls-1" d="M45.81,13.65c0-.9,0-1.68-.05-2.39a.67.67,0,0,1,.67-.69h.2a.67.67,0,0,1,.66.63l.06,1h0a3.68,3.68,0,0,1,3.36-1.81c2.3,0,4,1.93,4,4.77,0,3.4-2.09,5.07-4.31,5.07a3.29,3.29,0,0,1-2.9-1.48h0V23.2a.67.67,0,0,1-.67.67h-.36a.67.67,0,0,1-.67-.67Zm1.7,2.52a2.59,2.59,0,0,0,.08.7,2.64,2.64,0,0,0,2.57,2C52,18.88,53,17.4,53,15.23c0-1.87-1-3.49-2.81-3.49a2.7,2.7,0,0,0-2.59,2.11,2.7,2.7,0,0,0-.12.68Z"/><path class="cls-1" d="M56,6.84h.32a.69.69,0,0,1,.7.69V20a.7.7,0,0,1-.7.7H56a.7.7,0,0,1-.7-.7V7.53A.7.7,0,0,1,56,6.84Z"/><path class="cls-1" d="M31.62,13.13c0-.67,0-1.24,0-1.77a.76.76,0,0,1,.75-.79h0a.76.76,0,0,1,.75.72l0,.82h.06a3.29,3.29,0,0,1,3-1.73,2.79,2.79,0,0,1,2.65,1.89h0A3.63,3.63,0,0,1,39.93,11,3.14,3.14,0,0,1,42,10.38c1.27,0,3.12.82,3.12,4.09v4.79a.75.75,0,0,1-.75.75h-.17a.75.75,0,0,1-.75-.75V14.69c0-1.84-.69-2.91-2-2.91a2.24,2.24,0,0,0-2,1.5l0,.08a3,3,0,0,0-.12.82v5.08a.76.76,0,0,1-.75.75h-.18a.76.76,0,0,1-.75-.75v-4.9c0-1.51-.66-2.58-2-2.58a2.36,2.36,0,0,0-2.12,1.72,2.21,2.21,0,0,0-.14.84v4.92a.76.76,0,0,1-.75.75h-.18a.76.76,0,0,1-.75-.75Z"/></g></g></svg>