<svg xmlns="http://www.w3.org/2000/svg" viewBox="0 0 574.51 158.16"><defs><style>.cls-1{fill:#3dbeb7;}.cls-2{fill:#3b4c66;}</style></defs><title>5Asset 7</title><g id="Layer_2" data-name="Layer 2"><g id="Layer_3" data-name="Layer 3"><path class="cls-1" d="M61.14,4.18c-15.2,8.87-15,6.34-30.83-1.9S-1.47,9.77.11,23c2.32,19.43,18,44.35,47.09,44.35S94.3,48.74,94.3,27.2,76.35-4.69,61.14,4.18ZM50.46,58.6C30,58.6,17,43.19,10.62,32.84s-.69-14.42,4.32-19.43,10.78-5.07,18.91.1,17.21,10.25,30.09.85,22,6.12,22,11.51S81.79,58.6,50.46,58.6Z"/><path class="cls-1" d="M184.53,4.39c-15.21,8.87-15,6.33-30.84-1.9S121.91,10,123.49,23.18c2.33,19.43,18,44.35,47.1,44.35s47.1-18.58,47.1-40.12S199.73-4.48,184.53,4.39ZM173.85,58.81C153.4,58.81,140.34,43.39,134,33s-.69-14.41,4.33-19.43,10.77-5.06,18.9.11,17.21,10.24,30.1.85,22,6.12,22,11.51S205.17,58.81,173.85,58.81Z"/><path class="cls-1" d="M418.61,131.16c15.2-8.87,15-6.33,30.83,1.9s31.78-7.48,30.2-20.69C477.32,92.94,461.69,68,432.54,68s-47.09,18.58-47.09,40.12S403.4,140,418.61,131.16Zm10.68-54.42c20.45,0,33.51,15.42,39.84,25.77s.69,14.41-4.33,19.43S454,127,445.9,121.83s-17.21-10.24-30.09-.84-22-6.13-22-11.51S398,76.74,429.29,76.74Z"/><path class="cls-2" d="M83.18,97c0-2.4-8.9-4.76-8.9-6.27s4-4.82,5.42-4.82,4.82-1,2.32-4.16-2.68-3.87-2.89-5.94,1.15-7.34-11-7.34-15.57-.27-15.57-.27H30.49s-9,.64-11.83,6.34-1.79,9.71.95,12.46-4.43,5.38-4.43,7,8.45,6.58,8.45,8.31-6.13,4.36-6.13,6.79S23,110.84,23,112.53s-5.54,5.07-5.54,7.24,8.78,7.65,13.43,9.83,14.5,6.69,18,6.69,13.51-3.73,16.19-5,4.19-4,8.09-6.54,7.89-3.45,7.26-5-4.72-4.68-4.72-5.84,6.72-4.79,6.72-6.37-6.62-3.55-6.62-4.86S83.18,99.37,83.18,97Zm-21.75,5.28c0,1.7,10.29,3.89,10.29,6.58S61.8,111.69,61.8,114s8.5,4.07,8.5,5.55-7.34,6-10.19,7.49-8.55,1.16-10.93,1.16a39.43,39.43,0,0,1-12.73-2.27c-5.59-2-10.18-6.94-10.18-8.26s15-1.11,16.65-1.11,3.14-2.37,3.14-4S27.37,111,27.51,108.47s5.43-5.41,8-5.28,13.36-1.19,13.36-2.91S37.46,97.38,36,97.17s-5.81.26-7.42,0-4.51-2.11-4.22-3.67,2.3-2.56,4-2.56,6.46.87,8.5,1.11,11.8.58,13.38.58-2.36-5.11-3.51-6.26S31.94,85,30.07,84.76s-3.59-1.69-3.59-2.85,1.79-3,4.75-3H67.45c3.17,0,8-.42,8,2.38s-14,8.24-14,10.14,12.3,2.58,12.3,4.91S61.43,100.55,61.43,102.26Z"/><path class="cls-2" d="M206.57,97.18c0-2.39-8.91-4.75-8.91-6.26s4-4.83,5.42-4.83,4.82-1,2.32-4.15-2.67-3.87-2.88-6,1.14-7.34-11-7.34-15.58-.26-15.58-.26H153.87s-9,.63-11.82,6.34-1.8,9.71.95,12.46-4.44,5.38-4.44,7,8.45,6.58,8.45,8.3-6.12,4.37-6.12,6.8,5.49,1.79,5.49,3.48-5.55,5.07-5.55,7.23,8.79,7.66,13.43,9.84,14.5,6.69,18,6.69,13.52-3.73,16.19-5,4.19-4,8.1-6.55,7.88-3.45,7.25-5-4.72-4.68-4.72-5.84,6.73-4.79,6.73-6.37-6.62-3.56-6.62-4.86S206.57,99.58,206.57,97.18Zm-21.76,5.28c0,1.71,10.3,3.89,10.3,6.58s-9.93,2.86-9.93,5.18,8.5,4.06,8.5,5.54-7.33,6-10.19,7.5-8.55,1.16-10.93,1.16a39.71,39.71,0,0,1-12.72-2.27c-5.6-2-10.19-6.94-10.19-8.26s15-1.11,16.66-1.11,3.14-2.38,3.14-4-18.69-1.64-18.56-4.15,5.44-5.41,8-5.28,13.36-1.18,13.36-2.9-11.38-2.9-12.8-3.11-5.81.26-7.42,0-4.51-2.12-4.22-3.67,2.29-2.56,4-2.56,6.47.87,8.5,1.1,11.8.59,13.39.59-2.37-5.11-3.51-6.26S155.33,85.23,153.45,85s-3.59-1.69-3.59-2.85,1.8-3,4.75-3h36.22c3.17,0,8-.42,8,2.38s-14,8.23-14,10.13,12.31,2.59,12.31,4.91S184.81,100.75,184.81,102.46Z"/><path class="cls-2" d="M85.1,127.08a4.09,4.09,0,0,1,.84-2.47l27.58-36.06C116.39,85,119,82,121.86,78.64v-.26H91.76a4.05,4.05,0,0,1-4.05-4v-1a4.05,4.05,0,0,1,4.05-4h39.87a4,4,0,0,1,4.05,4v1.74a4,4,0,0,1-.84,2.47l-27.32,35.54c-2.73,3.52-5.21,6.78-8.08,9.91v.26h32.71a4,4,0,0,1,4,4v1a4,4,0,0,1-4,4h-43a4.05,4.05,0,0,1-4.06-4Z"/><path class="cls-2" d="M558.08,59.61v4.87a4.37,4.37,0,0,0,4.37,4.37h7.69a4.37,4.37,0,0,1,4.37,4.36h0a4.37,4.37,0,0,1-4.37,4.37h-7.69A4.37,4.37,0,0,0,558.08,82V111.6c0,7.82,2.22,12.26,8.61,12.26.88,0,1.65,0,2.35-.06a4.34,4.34,0,0,1,4.58,4.1l0,.34a4.37,4.37,0,0,1-3.54,4.56,35.07,35.07,0,0,1-6.41.57c-5.35,0-9.65-1.82-12.39-4.82-3.13-3.52-4.43-9.13-4.43-16.55V82a4.37,4.37,0,0,0-4.37-4.37h-1a4.37,4.37,0,0,1-4.37-4.37h0a4.37,4.37,0,0,1,4.37-4.36h1a4.37,4.37,0,0,0,4.37-4.37V60.36a4.36,4.36,0,0,1,3.1-4.18l2.48-.75A4.37,4.37,0,0,1,558.08,59.61Z"/><path class="cls-2" d="M482.8,86.34c0-4.42-.05-8.2-.21-11.77a5.08,5.08,0,0,1,5.08-5.31h0A5.09,5.09,0,0,1,492.75,74l.35,5.66h.26C496.49,73.82,503.79,68,514.22,68c8.73,0,22.29,5.22,22.29,26.86v32.46a5.08,5.08,0,0,1-5.09,5.08h-1.3a5.08,5.08,0,0,1-5.08-5.08V96c0-10.17-3.78-18.64-14.6-18.64-7.43,0-13.3,5.35-15.38,11.73a16.29,16.29,0,0,0-.79,5.35v32.85a5.07,5.07,0,0,1-5.08,5.08h-1.3a5.08,5.08,0,0,1-5.09-5.08Z"/><path class="cls-2" d="M306.39,89.86c0-6.06-.15-11.24-.33-16a4.45,4.45,0,0,1,4.45-4.62h1.33a4.45,4.45,0,0,1,4.45,4.19l.4,6.63H317C321.51,72.39,329.07,68,339.37,68c15.38,0,26.85,12.91,26.85,31.94,0,22.69-14,33.9-28.81,33.9-8.34,0-15.64-3.65-19.42-9.91h-.26v29.83a4.46,4.46,0,0,1-4.46,4.45h-2.42a4.45,4.45,0,0,1-4.46-4.45Zm11.34,16.81a18,18,0,0,0,.52,4.7,17.71,17.71,0,0,0,17.21,13.42c12.12,0,19.16-9.91,19.16-24.38,0-12.51-6.65-23.33-18.77-23.33a18.08,18.08,0,0,0-17.34,14.08,18.63,18.63,0,0,0-.78,4.56Z"/><path class="cls-2" d="M374.71,44.28h2.17a4.65,4.65,0,0,1,4.65,4.65v83.26a4.65,4.65,0,0,1-4.65,4.65h-2.17a4.65,4.65,0,0,1-4.65-4.65V48.93A4.65,4.65,0,0,1,374.71,44.28Z"/><path class="cls-2" d="M211.49,86.34c0-4.45-.11-8.25-.27-11.85a5,5,0,0,1,5-5.23h0a5,5,0,0,1,5,4.76l.28,5.54h.39c3.52-6,9.39-11.61,20-11.61,8.47,0,15,5.22,17.73,12.65h.26A24.74,24.74,0,0,1,267,72.39,21.14,21.14,0,0,1,280.84,68c8.48,0,20.86,5.48,20.86,27.38v32a5,5,0,0,1-5,5h-1.17a5,5,0,0,1-5-5V96.76c0-12.25-4.56-19.42-13.69-19.42-6.54,0-11.44,4.67-13.58,10-.07.17-.13.35-.19.53a19.43,19.43,0,0,0-.83,5.47v34a5,5,0,0,1-5,5H256a5,5,0,0,1-5-5V94.55c0-10-4.43-17.21-13.17-17.21-7,0-12.38,5.74-14.2,11.47a15.19,15.19,0,0,0-.92,5.61v32.91a5,5,0,0,1-5,5h-1.17a5,5,0,0,1-5-5Z"/></g></g></svg>